<svg width="217" height="89" viewBox="0 0 217 89" fill="none" xmlns="http://www.w3.org/2000/svg">
<g clip-path="url(#clip0_1_158)">
<path d="M26.4047 72.0154V45.2401C26.4047 39.002 23.6762 37.8939 20.2257 37.8939C17.2565 37.8939 14.687 38.8413 11.7178 40.6599V72.0196H3.3688V44.6903C0.322271 43.6584 0 42.0005 0 40.8967C0 36.7098 11.1549 31.5755 22.8726 31.5755C27.1266 31.5755 30.1774 32.6032 32.1025 34.7347C36.0342 32.9161 40.4471 31.5755 45.8269 31.5755C54.0126 31.5755 57.7037 35.2887 57.7037 43.0282V72.0154H49.359V45.2401C49.359 39.002 46.6304 37.8939 43.18 37.8939C40.2108 37.8939 37.4006 38.8413 34.672 40.6599V72.0196H26.4047V72.0154Z" fill="#1F1F1F"/>
<path d="M80.4904 89C77.1989 89 72.627 88.2895 69.4171 87.1814L70.2207 81.1802C74.234 83.0748 76.7219 83.5485 80.413 83.5485C87.1549 83.5485 92.771 81.0998 92.771 71.6221V67.4351C88.921 71.0681 84.2631 72.9628 79.6911 72.9628C72.0684 72.9628 67.4105 69.8839 67.4105 60.6388V40.736C64.7636 39.9451 63.801 38.6806 63.801 37.1031C63.801 33.4702 69.3398 32.9161 72.8676 32.9161H75.7551V59.9325C75.7551 65.2233 78.7243 66.6485 82.497 66.6485C86.3471 66.6485 90.6827 64.1998 92.771 61.6707V32.9161H101.116V70.7509C101.116 84.8934 90.7644 89 80.4904 89Z" fill="#1F1F1F"/>
<path d="M149.907 31.0214C149.907 25.4135 151.515 22.4911 153.758 20.4357C156.245 18.0673 159.537 17.3568 162.025 17.3568C164.672 17.3568 166.038 18.3041 166.038 20.4357V22.3304C167.173 17.6486 171.762 13.1698 171.762 13.1698C170.58 12.3959 168.406 11.9814 166.429 11.9814C159.288 11.9814 154.883 13.5631 150.23 16.3248C145.013 19.4037 141.803 25.092 141.563 33.4659H136.957H135.066H122.626V30.6239C122.626 25.3331 123.993 21.7763 126.236 19.8816C128.401 18.0631 130.649 17.3525 132.574 17.3525C134.821 17.3525 135.865 18.2999 135.865 20.4314V22.3261L143.088 21.5437V17.9912C143.088 14.2018 140.682 11.9899 135.465 11.9899C130.331 11.9899 125.836 13.6477 121.823 16.5701C117.487 19.649 114.681 23.6795 114.277 33.4744H107.776V39.1627H114.277V72.0239H122.622V39.1627H135.062H136.952H141.559V72.0239H149.903V39.1627H165.793L166.21 33.4744H149.903V31.0214H149.907Z" fill="#1F1F1F"/>
<path d="M183.295 44.6861C180.003 43.6584 179.685 42.0005 179.685 40.8967C179.685 36.7098 190.759 31.5755 204.483 31.5755C213.391 31.5755 217.004 35.2887 217.004 43.0282V72.0154H208.66V45.2401C208.66 39.002 205.531 37.8939 201.836 37.8939C198.626 37.8939 194.772 38.8413 191.644 40.6599V72.0196H183.299V44.6861H183.295Z" fill="#1F1F1F"/>
<path d="M174.142 33.4702H165.798V72.0154H174.142V33.4702Z" fill="#7B00D9"/>
<path d="M166.214 30.3448C179.651 29.427 189.401 26.0901 195.494 20.5752C195.494 20.5752 192.181 21.0785 190.943 19.2303C194.432 19.6659 196.499 18.7355 198.025 17.6317C200.165 13.5589 203.4 5.47263 203.039 0C202.777 12.0068 168.741 0.972725 166.214 30.3448Z" fill="#7B00D9"/>
<path d="M194.02 11.5204C186.754 16.7689 172.015 14.5232 167.546 27.6761C173.532 18.6721 187.141 21.0024 194.02 11.5204Z" fill="url(#paint0_linear_1_158)"/>
<path d="M194.02 11.5204C186.625 17.9235 172.385 15.4959 167.546 27.6761C173.532 18.6721 187.141 21.0024 194.02 11.5204Z" fill="url(#paint1_linear_1_158)"/>
<path d="M192.615 10.2136C200.568 7.7564 202.451 5.06661 202.962 0.80777C201.183 11.5077 168.681 1.66207 166.214 30.3447C168.311 11.292 182.092 13.4701 192.615 10.2136Z" fill="url(#paint2_linear_1_158)"/>
<path d="M192.426 9.43117C200.143 7.34193 202.365 5.07506 202.94 0.947327C200.904 11.4231 168.672 1.78895 166.219 30.3447C168.311 11.292 181.791 12.3113 192.426 9.43117Z" fill="url(#paint3_linear_1_158)"/>
</g>
<defs>
<linearGradient id="paint0_linear_1_158" x1="177.476" y1="19.8392" x2="165.696" y2="20.7299" gradientUnits="userSpaceOnUse">
<stop offset="0.00341552" stop-color="#EEB50A"/>
<stop offset="0.4405" stop-color="#FDF184"/>
<stop offset="0.8865" stop-color="#EAC965"/>
</linearGradient>
<linearGradient id="paint1_linear_1_158" x1="166.504" y1="26.2954" x2="200.523" y2="7.02411" gradientUnits="userSpaceOnUse">
<stop stop-color="#B9842A"/>
<stop offset="0.0454" stop-color="#C28C25"/>
<stop offset="0.118" stop-color="#D9A217"/>
<stop offset="0.1703" stop-color="#EEB50A"/>
<stop offset="0.4405" stop-color="#FDF184"/>
<stop offset="0.727" stop-color="#EEB50A"/>
<stop offset="0.8865" stop-color="#EAC965"/>
<stop offset="1" stop-color="#B9842A"/>
</linearGradient>
<linearGradient id="paint2_linear_1_158" x1="196.84" y1="21.4107" x2="183.435" y2="14.8207" gradientUnits="userSpaceOnUse">
<stop offset="0.00341552" stop-color="#EEB50A"/>
<stop offset="0.4405" stop-color="#FDF184"/>
<stop offset="0.8865" stop-color="#EAC965"/>
</linearGradient>
<linearGradient id="paint3_linear_1_158" x1="167.072" y1="23.5388" x2="210.638" y2="-0.0682706" gradientUnits="userSpaceOnUse">
<stop stop-color="#B9842A"/>
<stop offset="0.0454" stop-color="#C28C25"/>
<stop offset="0.118" stop-color="#D9A217"/>
<stop offset="0.1703" stop-color="#EEB50A"/>
<stop offset="0.4405" stop-color="#FDF184"/>
<stop offset="0.727" stop-color="#EEB50A"/>
<stop offset="0.8865" stop-color="#EAC965"/>
<stop offset="1" stop-color="#B9842A"/>
</linearGradient>
<clipPath id="clip0_1_158">
<rect width="217" height="89" fill="white"/>
</clipPath>
</defs>
</svg>
